Patient4_TMGait_0pt2_02_right_08_EMG.mot
version=1
nRows=26
nColumns=33
inDegrees=no
endheader
time	1LAddLong	2LGlutMax	3LGlutMed	4LIliopsoas	5LSemiMemb	6LBicFemLong	7LRecFem	8LVastMed	9LVastLat	10LGasMed	11LTibAnt	12lTibPost	13LPeroneusLong	14LSol	15LExtDigLong	16LFlexDigLong	17RAddLong	18RGlutMax	19RGlutMed	20RIliopsoas	21RSemiMemb	22RBicFemLong	23RRecFem	24RVastMed	25RVastLat	26RGasMed	27RTibAnt	28RTibPost	29RPeroneusLong	30RSol	31RExtDigLong	32RFlexDigLong
18.485	0.017853	0.007172	-0.014038	0.004425	0.088043	0.000153	-0.11047	0.005798	0.076599	-0.14252	0.007172	-0.005798	0.011597	0.015717	0.009918	-0.003052	-0.035706	-0.005951	0.17609	-0.00412	0.35538	0.027618	0.072784	-0.009766	-0.00351	-0.003815	0.77652	-0.004578	-0.74097	-0.14832	-0.004272	-0.019379
18.486	0.000458	0.032654	0.006866	0.002136	0.060883	0.027466	-0.10574	0.003815	0.030212	-0.1915	0.007019	-0.006409	-0.000153	0.016479	0.007629	0.027466	-0.020447	-0.034332	0.53787	-0.063934	0.094604	0.079041	0.088959	0.065155	-0.017853	-0.006256	0.50476	-0.002594	-0.55725	-0.18784	-0.00061	-0.018311
18.487	-0.000763	0.034637	-0.038757	-0.01297	0.017395	0.021973	-0.080109	-0.001526	0.069275	-0.16144	0.005493	-0.005188	0.006409	-0.000305	0.005646	0.033569	0.001526	-0.042419	0.15533	-0.028076	-0.022888	0.066681	0.093231	-0.054016	-0.048065	-0.008087	-0.022583	-0.007935	-0.66727	-0.16602	0.000458	-0.004272
18.488	-0.002899	0.023041	-0.054779	-0.010529	-0.027771	-0.014801	0.014954	0.019226	0.27374	0.11459	-0.002594	0.000153	0.006104	0.004425	0.00885	0.033417	0.028229	-0.032196	-0.35873	-0.005798	0.015411	0.032196	-0.13886	-0.014191	-0.094757	-0.00351	-0.60562	-0.005035	-0.48172	-0.19531	0.000153	-0.001831
18.489	0.002136	0.041656	0.037537	0.015564	-0.019073	-0.022583	0.049133	0.036621	0.2681	0.2002	0.018005	0.005951	0.005493	-0.007629	0.007172	0.026245	0.014191	-0.071869	0.046844	-0.018768	-0.022736	0.03006	-0.1947	-0.087738	-0.093842	0.010071	-0.336	-0.002289	-0.19516	-0.17624	0.00061	-0.002136
18.49	0.008545	0.066833	0.018158	0.016479	-0.006714	-0.062866	0.029144	0.030823	0.15686	-0.006256	-0.002594	0.009766	-0.00351	0.001068	0.001068	0.028076	0.018463	-0.056	-0.025177	-0.006714	-0.002136	0.009003	-0.1619	-0.088501	-0.091248	0.005188	-0.021667	-0.001831	0.49057	-0.13641	0	0.005951
18.491	0.009918	0.083466	-0.007324	0.007629	0.010681	-0.099792	0.047302	0.021362	0.078735	-0.046692	0.013733	0.006104	-0.006714	0.00885	-0.010986	0.023346	-0.001984	0.027618	-0.10635	-0.018921	0.03952	0.013428	-0.27176	-0.13229	-0.12604	-0.004578	0.1622	-0.003357	0.16647	-0.065002	-0.002747	-0.005341
18.492	0.003204	0.13336	-0.013733	0.005188	0.008698	-0.071564	0.035248	0.007629	0.065918	-0.027618	0.01297	0.007782	-0.002441	0.00946	0.005646	0.020752	-0.012817	0.067444	-0.16266	0.001984	0.096893	0.018463	-0.18524	0.018311	-0.09201	-0.010071	0.061646	0.000305	-0.10635	0.060577	0.005646	-0.01709
18.493	0.006866	0.077362	-0.024872	-0.004883	0.032043	-0.064392	0.008698	0.00351	0.058441	-0.010376	0.023041	0.014191	0.010223	-0.000916	-0.012207	0.027008	-0.013123	0.045166	0.20554	-0.019989	-0.048828	-0.005798	-0.010529	0.043488	-0.057373	-0.00885	-0.14221	-0.006104	0.50217	0.15045	-0.003967	-0.015564
18.494	0.006714	0.10635	0.00946	0.011444	0.033264	-0.041199	-0.001068	-0.011139	-0.059662	0.001831	-0.006256	0.011139	0.003967	0.001068	0.001068	0.015259	0.014496	-0.0177	0.68008	-0.065765	-0.082245	-0.12054	0.02533	0	-0.052795	-0.010986	-0.1831	0.000305	0.032043	0.18265	-0.002441	-0.016785
18.495	0.006256	0.10895	0.016632	0.011139	0.028992	-0.02655	0.057983	-0.021667	-0.16937	0.010529	0.000153	0.016479	0.010986	0.00885	-0.001373	0.030823	0.02121	-0.059357	0.15152	-0.1358	-0.086517	-0.10239	-0.009613	-0.064545	-0.019531	-0.003662	-0.22461	-0.000916	-0.042419	0.062561	-0.001526	-0.015717
18.496	0.001373	0.052948	0.06424	0.013123	-0.012054	-0.0177	0.070953	-0.017395	-0.26672	0.015106	0.006714	0.006104	-0.003662	0.001678	0.000458	0.027618	0.019836	-0.030975	-0.12054	-0.14648	-0.01236	-0.090027	0.021515	-0.058594	0.12985	-0.010529	-0.23117	-0.005188	0.037384	0.037842	-0.003662	-0.014343
18.497	-0.009308	0.07309	0.060272	0.004272	-0.026855	-0.002136	0.059204	-0.047302	-0.18417	0.005188	0.01236	0.015411	-0.004578	0.009155	0.001221	0.022736	0.007477	0.008087	-0.094452	-0.074158	0.027466	-0.065765	0.14893	-0.051117	0.21057	-0.00946	-0.10468	-0.004578	0.073242	0.099182	-0.003357	-0.012054
18.498	-0.013275	0.071564	0.073547	0.01709	-0.030975	0.025024	0.091705	-0.00885	-0.085297	0.013275	0.012665	0.009155	0.000458	-0.009155	0.001068	0.00946	0.003967	0.088501	-0.032196	0.028992	0.045624	-0.01236	0.2005	-0.12924	0.14954	-0.014648	-0.19867	0.003662	0.020905	0.065765	-0.001221	-0.013885
18.499	-0.005341	0.048828	0.064392	-0.000305	-0.045929	0.038757	0.093384	-0.00412	-0.012054	0.021973	-0.002747	0.006104	0.014954	0.010071	0.002594	0.030212	-0.00473	0.13382	0.44495	0.14297	0.048828	0.093231	-0.020752	-0.099182	0.01709	-0.011139	-0.3952	-0.005035	-0.16754	0.014343	-0.000458	-0.018921
18.5	-0.016937	0.075989	0.015717	-0.01297	-0.048828	0.03067	0.045319	-0.005341	-0.030365	0.023956	0.005341	0.002899	0.01236	0.01236	0.001678	0.02533	-0.007019	0.19806	0.2359	0.24323	0.049744	0.007324	-0.06012	-0.040741	-0.054779	-0.001068	-0.4039	-0.002136	-0.054169	-0.018005	-0.00473	-0.008698
18.501	-0.008087	0.038757	-0.014496	0.005493	-0.041962	-0.005035	-0.019836	-0.000916	-0.019836	0.026855	-0.00412	0.001984	0.012207	-0.050507	-0.00061	0.021667	-0.014648	0.10819	0.054932	0.08728	0.033264	-0.025177	-0.10193	-0.16312	0.01358	-0.002289	-0.49301	-0.005341	0.15259	0.009308	-0.004272	-0.017548
18.502	-0.000458	0.050354	-0.001831	0.00824	0.005188	-0.040436	-0.061035	0.000916	-0.00061	0.019836	0.011749	-0.000763	0.007935	-0.00061	0.000916	0.015106	0.00885	0.036011	0.14999	-0.014343	0.012512	-0.037231	-0.077209	-0.16403	0.056763	-0.013275	-0.11887	-0.005646	0.11826	0.015411	-0.001678	-0.021667
18.503	-0.001068	0.103	0.039978	0.005035	0.009613	-0.055237	-0.036316	-0.007782	-0.004578	0.019684	0.003357	-0.002136	0.013733	0.044861	0.006409	0.023041	-0.001831	-0.005188	0.045471	0.039978	-0.018463	-0.03952	-0.20462	-0.14572	0.068665	-0.000916	0.2385	-0.004578	0.067444	-0.050201	-0.002441	-0.00061
18.504	-0.007629	0.10407	0.017853	0.006866	-0.00061	-0.043488	-0.036621	0.001221	0.001984	0.030365	0.008087	-0.003204	0.007019	-0.000458	0.007782	0.014801	-0.003357	-0.037384	-0.007935	0.071869	-0.034027	0.000458	-0.31891	-0.046539	0.22415	0.005798	0.65414	-0.005341	0.13916	-0.18112	-0.005493	-0.017242
18.505	-0.010834	0.09964	-0.014648	-0.01709	0.00824	-0.018616	-0.057068	0.004578	0.00473	0.024719	0.000916	-0.002899	0.007172	0.003052	0.003052	0.022125	0.005798	-0.069122	-0.040131	0.019684	-0.0354	-0.054321	-0.27191	0.085602	0.31448	0.014343	0.49362	-0.002594	-0.18768	-0.24521	0.00412	-0.016632
18.506	-0.01297	0.054779	-0.052948	0.008698	-0.011292	0.032806	-0.065155	0.001526	0.00351	0.020599	0.007172	-0.005798	0.020447	-0.000305	-0.001831	0.016327	-0.001831	-0.098267	-0.018311	-0.00946	-0.066376	-0.16937	-0.14526	0.13748	0.37979	0.008087	0.33005	-0.002747	-0.5481	-0.18768	-0.00061	-0.017548
18.507	-0.018768	0.045929	-0.006866	0.02243	0.013885	0.095062	0.006866	0.005951	0.008392	0.023041	-0.00412	-0.001526	0.004578	0.016937	0.001831	0.019531	0.005035	-0.14481	0.00412	-0.051575	-0.08606	-0.23697	-0.097504	0.20752	0.4274	-0.002136	0.5719	-0.014191	-0.38132	-0.10559	-0.00351	-0.018311
18.508	-0.013428	0.035248	0.045166	-0.002136	-0.02243	0.10956	0.000763	-0.002899	-0.007477	0.020752	0.003052	0.00473	0.010529	0.026245	0.005493	0.009918	0.006561	-0.16998	-0.052338	-0.083923	-0.064087	-0.24323	-0.092163	0.25787	0.43701	0.00473	0.31479	-0.009003	0.23438	-0.11459	-0.002594	-0.018463
18.509	0.011139	0.040283	-0.008698	0.012207	-0.099792	0.079041	0.003815	-0.003052	-0.007629	0.019073	0.012512	-0.007782	0.015411	-0.000305	0.004883	0.00473	0.002747	-0.15762	0.041656	-0.098877	-0.014648	-0.25925	-0.16373	0.21316	0.042572	0.003815	0.14771	-0.007172	0.35324	-0.11673	-0.003204	-0.011902
18.51	0.013275	0.065002	-0.007935	0.006714	-0.12375	0.036011	-0.006714	-0.00412	-0.031738	0.020294	0.005493	-0.009308	0.009308	0.02243	0.001068	0.003815	-0.000458	-0.15808	-0.096741	-0.087433	0.019073	-0.21362	-0.20828	0.17868	0.074463	-0.000916	-0.13519	-0.006866	0.009918	-0.026855	-0.001678	-0.016022
